<svg width="74" height="65" viewBox="0 0 74 65" fill="none" xmlns="http://www.w3.org/2000/svg">
<path d="M65.4743 20.5424C65.4743 22.5325 64.57 24.441 62.9604 25.8482C61.3508 27.2554 59.1677 28.0459 56.8914 28.0459C54.6151 28.0459 52.432 27.2554 50.8224 25.8482C49.2128 24.441 48.3085 22.5325 48.3085 20.5424C48.3085 18.5524 49.2128 16.6439 50.8224 15.2367C52.432 13.8295 54.6151 13.039 56.8914 13.039C59.1677 13.039 61.3508 13.8295 62.9604 15.2367C64.57 16.6439 65.4743 18.5524 65.4743 20.5424ZM3.12651 5.72687V19.3358H0.798985C0.694073 19.336 0.590133 19.3182 0.493132 19.2832C0.396132 19.2483 0.307982 19.197 0.233743 19.1321C0.159504 19.0673 0.100639 18.9904 0.0605265 18.9056C0.0204143 18.8209 -0.00015455 18.73 8.74285e-07 18.6383V1.0781C8.74285e-07 0.483497 0.507161 0 1.20259 0H11.4952C12.1895 0 12.6978 0.482468 12.6978 1.07604V2.10681H28.6104C29.0552 2.10681 29.4106 2.41851 29.4106 2.80223V6.75044H15.8267V5.71658C15.8267 5.12301 15.3184 4.64054 14.6218 4.64054H4.33263C3.63602 4.64054 3.12651 5.13124 3.12651 5.72687Z" fill="white"/>
<path d="M35.6684 27.5763C35.6684 27.668 35.6477 27.7588 35.6074 27.8434C35.5672 27.9281 35.5081 28.0049 35.4338 28.0695C35.3594 28.1342 35.2712 28.1853 35.1741 28.22C35.0771 28.2547 34.9731 28.2723 34.8683 28.2718H7.0568C6.95194 28.2722 6.84803 28.2544 6.75103 28.2196C6.65404 28.1848 6.56588 28.1335 6.49163 28.0688C6.41737 28.0041 6.35849 27.9272 6.31836 27.8425C6.27823 27.7578 6.25766 27.667 6.25781 27.5753V10.0151C6.25781 9.42051 6.76497 8.93701 7.46041 8.93701H17.7507C18.4473 8.93701 18.9557 9.41948 18.9557 10.0131V11.0438H34.8683C35.3119 11.0438 35.6684 11.3555 35.6684 11.7392V27.5763ZM23.3318 17.5782V13.4366H18.5921V17.5782H13.8535V21.7219H18.5921V25.8646H23.3318V21.7219H28.0704V17.5782H23.3318ZM65.3732 29.9794C66.5035 29.9785 67.6229 30.1723 68.6675 30.5498C69.712 30.9273 70.6612 31.481 71.4609 32.1794C72.2605 32.8778 72.8948 33.7071 73.3276 34.6199C73.7604 35.5328 73.9832 36.5112 73.9832 37.4993L74.0008 65H45.1197V42.2026H43.9501L38.6243 49.1496C37.7571 50.1834 35.9967 50.6844 34.5929 50.6844H22.0892C21.0921 50.6847 20.1357 50.3389 19.43 49.723C18.7244 49.107 18.3274 48.2714 18.3261 47.3997C18.3261 45.5892 20.0123 44.1593 22.0892 44.1593H33.4621L41.3519 33.7301C43.2417 31.2077 46.9389 29.9887 49.9148 29.9887L65.372 29.9804L65.3732 29.9794Z" fill="white"/>
</svg>
