<svg width="18" height="18" viewBox="0 0 18 18" fill="none" xmlns="http://www.w3.org/2000/svg">
<path d="M0.395564 9.259C0.142272 9.02352 0 8.70431 0 8.3715C0 8.03869 0.142272 7.71949 0.395564 7.48401L8.06013 0.36729C8.31374 0.132102 8.65751 0 9.01595 0C9.37438 0 9.71815 0.132102 9.97176 0.36729L17.6363 7.48401C17.8755 7.72203 18.0059 8.03701 17.9998 8.36252C17.9937 8.68804 17.8518 8.99864 17.6039 9.22886C17.3559 9.45906 17.0214 9.59087 16.6708 9.59649C16.3203 9.60211 15.981 9.48111 15.7247 9.259L10.3685 4.28567V16.7441C10.3685 17.0772 10.226 17.3966 9.97236 17.6322C9.7187 17.8677 9.37467 18 9.01595 18C8.65722 18 8.31319 17.8677 8.05953 17.6322C7.80588 17.3966 7.66338 17.0772 7.66338 16.7441V4.28567L2.3072 9.259C2.05359 9.49419 1.70981 9.62629 1.35138 9.62629C0.992948 9.62629 0.649171 9.49419 0.395564 9.259Z" fill="white"/>
</svg>
