<svg width="1715" height="933" viewBox="0 0 1715 933" fill="none" xmlns="http://www.w3.org/2000/svg">
<path d="M61 0H1501V933H61V0Z" fill="white"/>
<path d="M1715 3.50295e-05C1715 132.548 1578.22 240 1409.5 240C1240.78 240 1104 132.548 1104 3.50295e-05C1206.55 3.50295e-05 1240.78 0.000150747 1409.5 0.000150747C1578.22 0.000150747 1546.94 -0.000115717 1715 3.50295e-05Z" fill="#ACE8FA" fill-opacity="0.15"/>
<ellipse cx="1464.5" cy="232" rx="174.5" ry="162" fill="#ACE8FA" fill-opacity="0.15"/>
<path d="M352.212 378.791C352.56 382.021 352.795 385.286 352.912 388.584H352.913L350.414 388.673C350.471 390.274 350.5 391.884 350.5 393.5C350.5 395.116 350.471 396.726 350.414 398.327L352.912 398.415C352.795 401.713 352.56 404.978 352.212 408.208L349.728 407.941C349.381 411.159 348.92 414.339 348.349 417.478L350.807 417.925C350.217 421.166 349.512 424.364 348.696 427.514L346.277 426.888C345.468 430.014 344.548 433.092 343.521 436.116L345.886 436.919C344.828 440.035 343.661 443.096 342.388 446.095L340.088 445.118C338.828 448.086 337.462 450.993 335.996 453.833L338.217 454.979C336.709 457.9 335.096 460.751 333.386 463.529L331.259 462.22C329.57 464.962 327.783 467.632 325.903 470.221L327.926 471.688C325.997 474.345 323.972 476.918 321.857 479.404L319.955 477.787C317.871 480.238 315.697 482.601 313.439 484.871L315.211 486.633C312.899 488.958 310.499 491.187 308.02 493.315L306.394 491.421C303.957 493.513 301.441 495.504 298.852 497.39L300.321 499.409C297.674 501.337 294.952 503.157 292.159 504.862L290.857 502.73C288.123 504.4 285.32 505.958 282.455 507.397L283.575 509.628C280.655 511.095 277.671 512.446 274.628 513.668L273.697 511.349C270.733 512.539 267.713 513.609 264.642 514.55L265.373 516.937C262.255 517.892 259.085 518.721 255.869 519.413L255.344 516.971C252.232 517.641 249.077 518.182 245.882 518.59L246.197 521.066C242.973 521.478 239.711 521.756 236.414 521.895L236.31 519.399C234.714 519.467 233.111 519.5 231.5 519.5C229.889 519.5 228.286 519.467 226.69 519.399L226.585 521.895C223.288 521.756 220.026 521.478 216.802 521.066L217.118 518.59C213.923 518.182 210.768 517.641 207.656 516.971L207.13 519.413C203.914 518.721 200.744 517.892 197.626 516.937L198.358 514.55C195.287 513.609 192.267 512.539 189.303 511.349L188.371 513.668C185.328 512.446 182.344 511.095 179.424 509.628L180.545 507.397C177.68 505.958 174.877 504.4 172.143 502.73L170.84 504.862C168.047 503.157 165.325 501.337 162.678 499.409L164.148 497.39C161.559 495.504 159.043 493.513 156.606 491.421L154.979 493.315C152.5 491.187 150.1 488.958 147.788 486.633L149.561 484.871C147.303 482.601 145.129 480.238 143.045 477.787L141.142 479.404C139.027 476.918 137.002 474.345 135.073 471.688L137.097 470.221C135.217 467.632 133.43 464.962 131.741 462.22L129.613 463.529C127.903 460.751 126.29 457.9 124.782 454.979L127.004 453.833C125.538 450.993 124.172 448.086 122.912 445.118L120.611 446.095C119.338 443.096 118.171 440.035 117.113 436.919L119.479 436.116C118.452 433.092 117.532 430.014 116.723 426.888L114.303 427.514C113.487 424.364 112.782 421.166 112.192 417.925L114.651 417.478C114.08 414.339 113.619 411.159 113.272 407.941L110.787 408.208C110.439 404.979 110.204 401.713 110.087 398.415L112.586 398.327C112.529 396.726 112.5 395.116 112.5 393.5C112.5 391.884 112.529 390.274 112.586 388.673L110.087 388.584C110.204 385.286 110.439 382.021 110.787 378.791L113.272 379.059C113.619 375.841 114.08 372.661 114.651 369.522L112.192 369.074C112.782 365.833 113.487 362.635 114.303 359.485L116.723 360.112C117.532 356.986 118.452 353.908 119.479 350.884L117.113 350.08C118.171 346.964 119.338 343.903 120.611 340.904L122.912 341.882C124.172 338.914 125.538 336.007 127.004 333.167L124.782 332.021C126.29 329.099 127.903 326.248 129.613 323.47L131.741 324.78C133.43 322.038 135.217 319.368 137.097 316.779L135.073 315.311C137.002 312.654 139.027 310.081 141.142 307.595L143.045 309.213C145.129 306.762 147.303 304.399 149.561 302.129L147.788 300.366C150.1 298.041 152.5 295.812 154.979 293.684L156.606 295.579C159.043 293.487 161.559 291.496 164.148 289.61L162.678 287.59C165.325 285.662 168.047 283.842 170.84 282.137L172.143 284.27C174.877 282.6 177.68 281.042 180.545 279.603L179.424 277.371C182.344 275.904 185.328 274.553 188.371 273.331L189.303 275.651C192.267 274.461 195.287 273.391 198.358 272.45L197.626 270.062C200.707 269.118 203.837 268.298 207.014 267.61L207.13 267.586L207.656 270.029C210.768 269.359 213.923 268.818 217.118 268.41L216.802 265.933C220.026 265.521 223.288 265.243 226.585 265.104L226.69 267.601C228.286 267.533 229.889 267.5 231.5 267.5C233.111 267.5 234.714 267.533 236.31 267.601L236.414 265.104C239.711 265.243 242.973 265.521 246.197 265.933L245.882 268.41C249.077 268.818 252.232 269.359 255.344 270.029L255.869 267.586C259.085 268.278 262.255 269.107 265.373 270.062L264.642 272.45C267.713 273.391 270.733 274.461 273.697 275.651L274.628 273.331C277.671 274.553 280.655 275.904 283.575 277.371L282.455 279.603C285.32 281.042 288.123 282.6 290.857 284.27L292.159 282.137C294.952 283.842 297.674 285.662 300.321 287.59L298.852 289.61C301.441 291.496 303.957 293.487 306.394 295.579L308.02 293.684C310.499 295.812 312.899 298.041 315.211 300.366L313.439 302.129C315.697 304.399 317.871 306.762 319.955 309.213L321.857 307.595C323.972 310.081 325.997 312.654 327.926 315.311L325.903 316.779C327.783 319.368 329.57 322.038 331.259 324.78L333.386 323.47C335.096 326.248 336.709 329.099 338.217 332.021L335.996 333.167C337.462 336.007 338.828 338.914 340.088 341.882L342.388 340.904C343.661 343.903 344.828 346.964 345.886 350.08L343.521 350.884C344.548 353.908 345.468 356.986 346.277 360.112L348.696 359.485C349.512 362.635 350.217 365.833 350.807 369.074H350.808L348.349 369.522C348.92 372.661 349.381 375.841 349.728 379.059L352.212 378.791Z" stroke="#ACE8FA" stroke-width="5" stroke-dasharray="10 10"/>
<circle cx="61.5" cy="544.5" r="61.5" fill="#ACE8FA"/>
<path fill-rule="evenodd" clip-rule="evenodd" d="M1348.82 460.289C1349.34 460.02 1349.97 459.934 1350.56 460.051C1351.15 460.167 1351.67 460.476 1352.01 460.913L1354.34 463.963C1354.64 464.361 1354.77 464.839 1354.7 465.312C1354.64 465.784 1354.38 466.222 1353.97 466.546L1353.96 466.554L1353.93 466.581L1353.8 466.688L1353.27 467.122C1350.34 469.561 1347.49 472.078 1344.74 474.668C1339.57 479.548 1333.43 485.934 1329.29 492.131C1328.14 493.86 1325.32 494.231 1323.65 492.739L1308.38 479.129C1308.16 478.934 1307.99 478.703 1307.88 478.451C1307.76 478.198 1307.71 477.928 1307.72 477.657C1307.73 477.387 1307.81 477.121 1307.94 476.876C1308.07 476.63 1308.26 476.41 1308.5 476.229L1313.11 472.658C1313.52 472.344 1314.04 472.161 1314.58 472.14C1315.13 472.119 1315.67 472.262 1316.1 472.543L1323.9 477.554C1336.07 467.259 1342.97 463.309 1348.82 460.289Z" fill="white"/>
</svg>
