<svg width="1451" height="2307" viewBox="0 0 1451 2307" fill="none" xmlns="http://www.w3.org/2000/svg">
<g clip-path="url(#clip0_459_1364)">
<rect width="1451" height="2307" fill="white"/>
<ellipse cx="-35.5" cy="193.185" rx="167.5" ry="173.185" fill="#ACE8FA" fill-opacity="0.15"/>
<path d="M1540.56 565.99C1541.02 569.347 1541.42 572.727 1541.76 576.127L1539.27 576.37C1539.6 579.706 1539.86 583.063 1540.06 586.438L1542.55 586.292C1542.75 589.671 1542.88 593.069 1542.95 596.484L1540.45 596.533C1540.48 598.219 1540.5 599.91 1540.5 601.604C1540.5 603.299 1540.48 604.989 1540.45 606.675L1542.95 606.723C1542.88 610.138 1542.75 613.536 1542.55 616.915L1540.06 616.77C1539.86 620.145 1539.6 623.502 1539.27 626.838L1541.76 627.081C1541.42 630.481 1541.02 633.86 1540.56 637.217L1538.08 636.876C1537.62 640.228 1537.09 643.557 1536.5 646.861L1538.96 647.301C1538.36 650.662 1537.69 653.999 1536.96 657.31L1534.52 656.772C1533.79 660.073 1533 663.347 1532.15 666.593L1534.56 667.229C1533.69 670.528 1532.76 673.799 1531.76 677.04L1529.38 676.307C1528.38 679.535 1527.33 682.733 1526.21 685.899L1528.57 686.729C1527.44 689.946 1526.24 693.13 1524.99 696.279L1522.67 695.354C1521.42 698.491 1520.1 701.594 1518.73 704.66L1521.01 705.68C1519.62 708.794 1518.17 711.871 1516.66 714.91L1514.42 713.797C1512.91 716.819 1511.35 719.804 1509.73 722.747L1511.92 723.951C1510.28 726.939 1508.57 729.885 1506.81 732.788L1504.68 731.493C1502.93 734.379 1501.12 737.222 1499.26 740.02L1501.34 741.402C1499.46 744.241 1497.51 747.034 1495.52 749.779L1493.5 748.311C1491.51 751.038 1489.48 753.718 1487.39 756.349L1489.34 757.902C1487.22 760.57 1485.05 763.188 1482.83 765.754L1480.94 764.119C1478.73 766.666 1476.47 769.162 1474.16 771.604L1475.98 773.32C1473.64 775.796 1471.25 778.217 1468.81 780.582L1467.07 778.789C1464.65 781.135 1462.19 783.425 1459.67 785.657L1461.33 787.525C1458.79 789.787 1456.19 791.99 1453.55 794.133L1451.98 792.192C1449.37 794.315 1446.71 796.378 1444 798.378L1445.49 800.386C1442.75 802.411 1439.97 804.372 1437.15 806.27L1435.76 804.196C1432.97 806.074 1430.13 807.887 1427.26 809.634L1428.56 811.77C1425.65 813.537 1422.7 815.236 1419.72 816.867L1418.52 814.675C1415.57 816.287 1412.58 817.831 1409.56 819.305L1410.65 821.551C1407.6 823.04 1404.5 824.459 1401.38 825.805L1400.39 823.51C1397.3 824.838 1394.19 826.095 1391.03 827.278L1391.91 829.617C1388.73 830.811 1385.52 831.932 1382.28 832.977L1381.51 830.598C1378.32 831.626 1375.09 832.58 1371.84 833.458L1372.49 835.87C1369.21 836.755 1365.91 837.563 1362.57 838.293L1362.04 835.852C1358.77 836.568 1355.47 837.208 1352.14 837.77L1352.56 840.233C1349.22 840.798 1345.85 841.284 1342.46 841.69L1342.17 839.209C1338.84 839.607 1335.5 839.928 1332.13 840.169L1332.31 842.66C1328.93 842.902 1325.53 843.064 1322.12 843.146L1322.06 840.648C1320.38 840.688 1318.69 840.708 1317 840.708C1315.31 840.708 1313.62 840.688 1311.94 840.648L1311.88 843.146C1308.47 843.064 1305.07 842.902 1301.69 842.66L1301.87 840.169C1298.5 839.928 1295.16 839.607 1291.83 839.209L1291.54 841.69C1288.15 841.284 1284.78 840.798 1281.44 840.233L1281.86 837.77C1278.53 837.208 1275.23 836.568 1271.96 835.852L1271.43 838.293C1268.09 837.563 1264.79 836.755 1261.51 835.87L1262.16 833.458C1258.91 832.58 1255.68 831.626 1252.49 830.598L1251.72 832.977C1248.48 831.932 1245.27 830.811 1242.09 829.617L1242.97 827.278C1239.81 826.095 1236.7 824.838 1233.61 823.51L1232.62 825.805C1229.49 824.459 1226.4 823.04 1223.35 821.551L1224.44 819.305C1221.42 817.831 1218.43 816.287 1215.48 814.675L1214.28 816.867C1211.3 815.236 1208.35 813.537 1205.44 811.77L1206.74 809.634C1203.87 807.887 1201.03 806.074 1198.24 804.196L1196.85 806.27C1194.02 804.372 1191.24 802.411 1188.51 800.386L1190 798.378C1187.29 796.378 1184.63 794.315 1182.02 792.192L1180.44 794.133C1177.81 791.991 1175.21 789.787 1172.67 787.525L1174.33 785.657C1171.81 783.425 1169.35 781.135 1166.93 778.789L1165.19 780.582C1162.75 778.217 1160.36 775.796 1158.02 773.32L1159.84 771.604C1157.53 769.162 1155.27 766.667 1153.06 764.119L1151.17 765.755C1148.95 763.188 1146.78 760.57 1144.66 757.902L1146.61 756.349C1144.52 753.718 1142.49 751.038 1140.5 748.311L1138.48 749.779C1136.48 747.034 1134.54 744.241 1132.65 741.402L1134.74 740.02C1132.88 737.222 1131.07 734.379 1129.32 731.493L1127.19 732.788C1125.43 729.885 1123.72 726.939 1122.08 723.951L1124.27 722.747C1122.65 719.804 1121.09 716.819 1119.58 713.797L1117.34 714.91C1115.83 711.871 1114.38 708.794 1112.99 705.68L1115.27 704.66C1113.9 701.594 1112.58 698.491 1111.33 695.354L1109.01 696.279C1107.76 693.13 1106.56 689.946 1105.43 686.729L1107.79 685.899C1106.67 682.733 1105.62 679.535 1104.62 676.307L1102.24 677.04C1101.24 673.799 1100.31 670.528 1099.44 667.229L1101.85 666.593C1101 663.347 1100.21 660.073 1099.48 656.772L1097.04 657.31C1096.31 653.999 1095.64 650.662 1095.04 647.301L1097.5 646.861C1096.91 643.557 1096.38 640.228 1095.92 636.876L1093.44 637.217C1092.97 633.86 1092.58 630.481 1092.24 627.081L1094.73 626.838C1094.4 623.502 1094.14 620.145 1093.94 616.77L1091.45 616.915C1091.25 613.536 1091.12 610.138 1091.05 606.723L1093.55 606.675C1093.53 605.832 1093.52 604.988 1093.51 604.143L1093.5 601.604C1093.5 599.91 1093.52 598.219 1093.55 596.533L1091.05 596.484C1091.12 593.069 1091.25 589.671 1091.45 586.292L1093.94 586.438C1094.14 583.063 1094.4 579.706 1094.73 576.37L1092.24 576.127C1092.56 572.835 1092.95 569.563 1093.39 566.312L1093.44 565.99L1095.92 566.332C1096.38 562.98 1096.91 559.651 1097.5 556.347L1095.04 555.906C1095.57 552.931 1096.15 549.976 1096.79 547.041L1097.04 545.897L1099.48 546.437C1100.21 543.136 1101 539.861 1101.85 536.615L1099.44 535.979C1100.31 532.679 1101.24 529.408 1102.24 526.167L1104.62 526.901C1105.62 523.673 1106.67 520.475 1107.79 517.309L1105.43 516.478C1106.56 513.261 1107.76 510.077 1109.01 506.928L1111.33 507.854C1112.58 504.717 1113.9 501.615 1115.27 498.549L1112.99 497.527C1114.38 494.413 1115.83 491.336 1117.34 488.297L1119.58 489.411C1121.09 486.389 1122.65 483.404 1124.27 480.461L1122.08 479.256C1123.72 476.268 1125.43 473.322 1127.19 470.419L1129.32 471.715C1131.07 468.829 1132.88 465.986 1134.74 463.188L1132.65 461.805C1134.54 458.966 1136.48 456.173 1138.48 453.428L1140.5 454.897C1142.49 452.17 1144.52 449.49 1146.61 446.859L1144.66 445.305C1146.78 442.637 1148.95 440.019 1151.17 437.453L1153.06 439.089C1155.27 436.542 1157.53 434.046 1159.84 431.604L1158.02 429.887C1160.36 427.411 1162.75 424.99 1165.19 422.625L1166.93 424.419C1169.35 422.073 1171.81 419.783 1174.33 417.551L1172.67 415.682C1175.21 413.42 1177.81 411.217 1180.44 409.074L1182.02 411.016C1184.63 408.893 1187.29 406.831 1190 404.831L1188.51 402.821C1191.24 400.796 1194.02 398.835 1196.85 396.938L1198.24 399.012C1201.03 397.134 1203.87 395.321 1206.74 393.574L1205.44 391.438C1208.35 389.671 1211.3 387.971 1214.28 386.34L1215.48 388.533C1218.43 386.921 1221.42 385.377 1224.44 383.903L1223.35 381.656C1226.4 380.167 1229.49 378.748 1232.62 377.402L1233.61 379.698C1236.7 378.37 1239.81 377.113 1242.97 375.93L1242.09 373.59C1245.27 372.396 1248.48 371.276 1251.72 370.231L1252.49 372.61C1255.68 371.582 1258.91 370.628 1262.16 369.75L1261.51 367.337C1264.79 366.452 1268.09 365.644 1271.43 364.914L1271.96 367.356C1275.23 366.64 1278.53 366 1281.86 365.438L1281.44 362.974C1284.78 362.409 1288.15 361.923 1291.54 361.517L1291.83 363.999C1295.16 363.601 1298.5 363.28 1301.87 363.039L1301.69 360.547C1305.07 360.305 1308.47 360.143 1311.88 360.062L1311.94 362.56C1313.62 362.52 1315.31 362.5 1317 362.5C1318.69 362.5 1320.38 362.52 1322.06 362.56L1322.12 360.062C1325.53 360.143 1328.93 360.305 1332.31 360.547L1332.13 363.039C1335.5 363.28 1338.84 363.601 1342.17 363.999L1342.46 361.517C1345.85 361.923 1349.22 362.409 1352.56 362.974L1352.14 365.438C1355.47 366 1358.77 366.64 1362.04 367.356L1362.57 364.914C1365.91 365.644 1369.21 366.452 1372.49 367.337L1371.84 369.75C1375.09 370.628 1378.32 371.582 1381.51 372.61L1382.28 370.231C1385.52 371.276 1388.73 372.396 1391.91 373.59L1391.03 375.93C1394.19 377.113 1397.3 378.37 1400.39 379.698L1401.38 377.402C1404.5 378.748 1407.6 380.167 1410.65 381.656L1409.56 383.903C1412.58 385.377 1415.57 386.921 1418.52 388.533L1419.72 386.34C1422.7 387.971 1425.65 389.671 1428.56 391.438L1427.26 393.574C1430.13 395.321 1432.97 397.134 1435.76 399.012L1437.15 396.938C1439.97 398.835 1442.75 400.796 1445.49 402.821L1444 404.83C1446.71 406.83 1449.37 408.893 1451.98 411.016L1453.55 409.074C1456.19 411.217 1458.79 413.42 1461.33 415.682L1459.67 417.551C1462.19 419.783 1464.65 422.073 1467.07 424.419L1468.81 422.625C1471.25 424.99 1473.64 427.411 1475.98 429.887L1474.16 431.604C1476.47 434.046 1478.73 436.542 1480.94 439.089L1482.83 437.452C1485.05 440.019 1487.22 442.637 1489.34 445.305H1489.34L1487.39 446.859C1489.48 449.49 1491.51 452.17 1493.5 454.897L1495.52 453.428C1497.51 456.173 1499.46 458.966 1501.34 461.805L1499.26 463.188C1501.12 465.986 1502.93 468.829 1504.68 471.715L1506.81 470.419C1508.57 473.322 1510.28 476.268 1511.92 479.256H1511.92L1509.73 480.461C1511.35 483.404 1512.91 486.389 1514.42 489.411L1516.66 488.297C1518.17 491.336 1519.62 494.413 1521.01 497.527L1518.73 498.548C1520.1 501.614 1521.42 504.717 1522.67 507.854L1524.99 506.928C1526.24 510.077 1527.44 513.261 1528.57 516.478L1526.21 517.309C1527.33 520.475 1528.38 523.673 1529.38 526.901L1531.76 526.167C1532.76 529.408 1533.69 532.679 1534.56 535.979L1532.15 536.615C1533 539.861 1533.79 543.136 1534.52 546.437L1536.96 545.897C1537.69 549.208 1538.36 552.545 1538.96 555.906H1538.96L1536.5 556.347C1537.09 559.651 1537.62 562.98 1538.08 566.332L1540.56 565.99Z" stroke="#ACE8FA" stroke-width="5" stroke-dasharray="10 10"/>
<circle cx="121.5" cy="84.5" r="84.5" fill="#ACE8FA" fill-opacity="0.15"/>
<circle cx="-0.5" cy="601.5" r="61.5" fill="#ACE8FA"/>
</g>
<defs>
<clipPath id="clip0_459_1364">
<rect width="1451" height="2307" fill="white"/>
</clipPath>
</defs>
</svg>
