<svg width="1440" height="907" viewBox="0 0 1440 907" fill="none" xmlns="http://www.w3.org/2000/svg">
<path d="M1307.74 365.396C1307.98 365.142 1308.3 365 1308.63 365C1308.96 365 1309.28 365.142 1309.52 365.396L1316.63 373.06C1316.87 373.314 1317 373.658 1317 374.016C1317 374.374 1316.87 374.718 1316.63 374.972L1309.52 382.636C1309.28 382.876 1308.96 383.006 1308.64 383C1308.31 382.994 1308 382.852 1307.77 382.604C1307.54 382.356 1307.41 382.021 1307.4 381.671C1307.4 381.32 1307.52 380.981 1307.74 380.725L1312.71 375.369H1300.26C1299.92 375.369 1299.6 375.226 1299.37 374.972C1299.13 374.719 1299 374.375 1299 374.016C1299 373.657 1299.13 373.313 1299.37 373.06C1299.6 372.806 1299.92 372.663 1300.26 372.663H1312.71L1307.74 367.307C1307.51 367.054 1307.37 366.71 1307.37 366.351C1307.37 365.993 1307.51 365.649 1307.74 365.396Z" fill="white"/>
<rect x="659" y="118" width="122" height="26" rx="13" fill="white"/>
<circle cx="110" cy="761" r="22" fill="#2C2C42"/>
<circle cx="1238" cy="232" r="22" fill="#2C2C42"/>
<circle cx="234" cy="105" r="22" fill="#FFAD4B"/>
<circle cx="1148" cy="791" r="22" fill="#FFAD4B"/>
<circle cx="82.5" cy="792.5" r="14.5" fill="#FFAD4B"/>
<circle cx="1186.5" cy="282.5" r="14.5" fill="#FFAD4B"/>
<circle cx="260.5" cy="144.5" r="14.5" fill="#2C2C42"/>
<circle cx="1209.5" cy="821.5" r="14.5" fill="#2C2C42"/>
</svg>
