<svg width="47" height="34" viewBox="0 0 47 34" fill="none" xmlns="http://www.w3.org/2000/svg">
<path fill-rule="evenodd" clip-rule="evenodd" d="M41.1012 0.289012C41.6229 0.0197953 42.246 -0.0655898 42.8395 0.050777C43.4331 0.167144 43.951 0.476214 44.2847 0.91312L46.6158 3.96297C46.9196 4.3614 47.0497 4.83909 46.9829 5.31175C46.9161 5.78441 46.6568 6.22163 46.2508 6.54626L46.2437 6.55434L46.2108 6.58059L46.0765 6.68764L45.5467 7.12189C42.6153 9.56109 39.7727 12.0776 37.0229 14.6678C31.8498 19.5475 25.7065 25.934 21.5718 32.1307C20.418 33.8596 17.5995 34.2312 15.9277 32.7386L0.657799 19.1294C0.438971 18.9343 0.268104 18.7035 0.155356 18.4506C0.0426087 18.1977 -0.00971887 17.928 0.00148369 17.6574C0.0126862 17.3868 0.0871903 17.121 0.220568 16.8756C0.353945 16.6302 0.543473 16.4103 0.777886 16.229L5.39299 12.6581C5.79856 12.3444 6.3186 12.1614 6.86412 12.1404C7.40963 12.1194 7.9467 12.2617 8.38339 12.543L16.1749 17.554C28.3461 7.25924 35.2475 3.30857 41.1012 0.289012Z" fill="white"/>
</svg>
