<svg width="53" height="64" viewBox="0 0 53 64" fill="none" xmlns="http://www.w3.org/2000/svg">
<path fill-rule="evenodd" clip-rule="evenodd" d="M7.52267 0.358404C4.83955 0.697608 3.42181 1.32162 2.40818 2.27843C1.39787 3.23844 0.738686 4.58245 0.377624 7.12008C0.00662446 9.73451 0 13.197 0 18.1602V45.5845C1.31167 44.7194 2.76701 44.0775 4.30293 43.6869C6.05193 43.2421 8.09242 43.2421 11.0836 43.2453H52.9999V18.1634C52.9999 13.197 52.9933 9.73451 52.6223 7.12008C52.2612 4.58245 51.602 3.23844 50.5917 2.27843C49.5781 1.32162 48.1604 0.697608 45.4772 0.358404C42.7146 0.00640004 39.0576 0 33.8106 0H19.1893C13.9423 0 10.2853 0.00640004 7.52267 0.358404ZM9.13917 14.7042C9.13917 13.2706 10.3648 12.1089 11.8786 12.1089H41.1213C41.84 12.103 42.5318 12.3724 43.0453 12.8582C43.5588 13.3441 43.852 14.0067 43.8607 14.701C43.8529 15.3958 43.56 16.0592 43.0465 16.5458C42.5329 17.0323 41.8406 17.3022 41.1213 17.2962H11.8786C11.1599 17.3022 10.4681 17.0327 9.95459 16.5469C9.44112 16.0611 9.14791 15.3984 9.13917 14.7042ZM11.8786 24.2179C11.1599 24.2119 10.4681 24.4813 9.95459 24.9672C9.44112 25.453 9.14791 26.1156 9.13917 26.8099C9.13917 28.2435 10.3648 29.4051 11.8786 29.4051H30.1536C30.8729 29.412 31.5656 29.1429 32.0798 28.657C32.594 28.1711 32.8876 27.5079 32.8964 26.8131C32.8885 26.1177 32.5952 25.4538 32.0809 24.9672C31.5667 24.4806 30.8735 24.2111 30.1536 24.2179H11.8786Z" fill="white"/>
<path d="M11.5045 48.4316H53.0001C52.9902 52.0477 52.9306 54.7485 52.6258 56.8797C52.2648 59.4174 51.6056 60.7614 50.5953 61.7214C49.5816 62.6782 48.1639 63.3022 45.4808 63.6414C42.7182 63.9934 39.0612 63.9998 33.8142 63.9998H19.1895C13.9425 63.9998 10.2855 63.9934 7.52291 63.6446C4.83979 63.3022 3.42204 62.6782 2.40842 61.7214C1.39811 60.7614 0.738919 59.4174 0.377858 56.8797C0.242045 55.9197 0.152609 54.8413 0.0996094 53.6157C0.553637 52.417 1.30256 51.343 2.28184 50.4862C3.26112 49.6294 4.44138 49.0154 5.72091 48.6972C6.68154 48.454 7.93034 48.4316 11.5045 48.4316Z" fill="white"/>
</svg>
