<svg width="29" height="30" viewBox="0 0 29 30" fill="none" xmlns="http://www.w3.org/2000/svg">
<path d="M26.4643 14.0833C26.4643 6.71933 20.7081 0.75 13.6071 0.75C6.50614 0.75 0.75 6.71933 0.75 14.0833C0.75 21.4473 6.50614 27.4167 13.6071 27.4167" stroke="#36C5F1" stroke-width="1.5" stroke-linecap="round" stroke-linejoin="round"/>
<path d="M14.8934 0.81665C14.8934 0.81665 18.7505 6.08332 18.7505 14.0833M12.322 27.35C12.322 27.35 8.46483 22.0833 8.46483 14.0833C8.46483 6.08332 12.322 0.81665 12.322 0.81665M1.56055 18.75H13.6077M1.56055 9.41665H25.6548M22.6077 21.4166V23.4167H24.5363" stroke="#36C5F1" stroke-width="1.5" stroke-linecap="round" stroke-linejoin="round"/>
<path d="M22.6077 28.7499C23.9717 28.7499 25.2798 28.188 26.2442 27.1878C27.2087 26.1876 27.7506 24.8311 27.7506 23.4166C27.7506 22.0021 27.2087 20.6455 26.2442 19.6454C25.2798 18.6452 23.9717 18.0833 22.6077 18.0833C21.2437 18.0833 19.9356 18.6452 18.9712 19.6454C18.0067 20.6455 17.4648 22.0021 17.4648 23.4166C17.4648 24.8311 18.0067 26.1876 18.9712 27.1878C19.9356 28.188 21.2437 28.7499 22.6077 28.7499Z" stroke="#36C5F1" stroke-width="1.5" stroke-linecap="round" stroke-linejoin="round"/>
</svg>
