<svg width="36" height="34" viewBox="0 0 36 34" fill="none" xmlns="http://www.w3.org/2000/svg">
<path d="M9 16.1053C7.93629 16.1053 6.883 15.897 5.90026 15.4923C4.91753 15.0876 4.02459 14.4945 3.27243 13.7467C2.52028 12.9989 1.92364 12.1112 1.51658 11.1342C1.10951 10.1572 0.9 9.11012 0.9 8.05263C0.9 6.99514 1.10951 5.94801 1.51658 4.97102C1.92364 3.99403 2.52028 3.10632 3.27243 2.35856C4.02459 1.61081 4.91753 1.01765 5.90026 0.61297C6.883 0.208288 7.93629 -1.57578e-08 9 0C11.1483 3.18243e-08 13.2085 0.8484 14.7276 2.35856C16.2466 3.86872 17.1 5.91694 17.1 8.05263C17.1 10.1883 16.2466 12.2365 14.7276 13.7467C13.2085 15.2569 11.1483 16.1053 9 16.1053ZM27.9 23.2632C25.9904 23.2632 24.1591 22.509 22.8088 21.1667C21.4586 19.8243 20.7 18.0037 20.7 16.1053C20.7 14.2069 21.4586 12.3862 22.8088 11.0439C24.1591 9.7015 25.9904 8.94737 27.9 8.94737C29.8096 8.94737 31.6409 9.7015 32.9912 11.0439C34.3414 12.3862 35.1 14.2069 35.1 16.1053C35.1 18.0037 34.3414 19.8243 32.9912 21.1667C31.6409 22.509 29.8096 23.2632 27.9 23.2632ZM27.9 25.0526C30.0483 25.0526 32.1085 25.901 33.6276 27.4112C35.1466 28.9214 36 30.9696 36 33.1053V34H19.8V33.1053C19.8 30.9696 20.6534 28.9214 22.1724 27.4112C23.6915 25.901 25.7517 25.0526 27.9 25.0526ZM9 17.8947C10.1819 17.8947 11.3522 18.1262 12.4441 18.5758C13.5361 19.0255 14.5282 19.6845 15.364 20.5154C16.1997 21.3462 16.8626 22.3326 17.3149 23.4181C17.7672 24.5036 18 25.6671 18 26.8421V34H0V26.8421C0 24.4691 0.948211 22.1933 2.63604 20.5154C4.32387 18.8374 6.61305 17.8947 9 17.8947Z" fill="#36C5F1"/>
</svg>
