<svg width="53" height="40" viewBox="0 0 53 40" fill="none" xmlns="http://www.w3.org/2000/svg">
<path d="M11.1579 5.33333C11.1579 2.39167 13.6597 0 16.7368 0H47.4211C50.4982 0 53 2.39167 53 5.33333V25.3333H44.6316V24C44.6316 22.525 43.385 21.3333 41.8421 21.3333H36.2632C34.7202 21.3333 33.4737 22.525 33.4737 24V25.3333H22.2199C23.1701 23.7667 23.7105 21.9417 23.7105 20C23.7105 14.1083 18.7156 9.33333 12.5526 9.33333C12.0819 9.33333 11.6112 9.35833 11.1579 9.41667V5.33333ZM29.028 34.6667C28.5834 32.65 27.6071 30.825 26.2298 29.3333H53C53 32.275 50.4982 34.6667 47.4211 34.6667H29.028ZM5.57895 20C5.57895 18.2319 6.31367 16.5362 7.62149 15.286C8.92931 14.0357 10.7031 13.3333 12.5526 13.3333C14.4022 13.3333 16.176 14.0357 17.4838 15.286C18.7916 16.5362 19.5263 18.2319 19.5263 20C19.5263 21.7681 18.7916 23.4638 17.4838 24.714C16.176 25.9643 14.4022 26.6667 12.5526 26.6667C10.7031 26.6667 8.92931 25.9643 7.62149 24.714C6.31367 23.4638 5.57895 21.7681 5.57895 20ZM0 37.3333C0 32.9167 3.74836 29.3333 8.36842 29.3333H16.7368C21.3569 29.3333 25.1053 32.9167 25.1053 37.3333C25.1053 38.8083 23.8587 40 22.3158 40H2.78947C1.24655 40 0 38.8083 0 37.3333Z" fill="white"/>
</svg>
