<svg width="46" height="37" viewBox="0 0 46 37" fill="none" xmlns="http://www.w3.org/2000/svg">
<path d="M45.2527 20.5766L37.463 2.24544C37.1827 1.58181 36.6969 1.01284 36.0687 0.612424C35.4405 0.212003 34.699 -0.00137143 33.9403 6.6332e-06H27.9611L28.8946 9.40032H35.5272L22.9989 19.1776L10.4705 9.40032H17.1031L18.0366 6.6332e-06H12.0574C10.5049 6.6332e-06 9.10954 0.888006 8.53471 2.24544L0.745 20.5766C0.0377733 22.2432 -0.17122 24.0602 0.14069 25.8306L1.59005 34.0146C1.73722 34.8486 2.19402 35.6064 2.87914 36.1531C3.56426 36.6998 4.43323 36.9999 5.33137 37H40.6639C42.5186 37 44.1006 35.7374 44.4052 34.0146L45.8546 25.8306C46.1737 24.0606 45.9653 22.2419 45.2527 20.5766ZM40.094 30.6291C40.0093 31.1176 39.7424 31.5616 39.3413 31.8816C38.9401 32.2016 38.431 32.3765 37.9052 32.375H8.09253C7.56675 32.3765 7.0576 32.2016 6.65646 31.8816C6.25532 31.5616 5.98846 31.1176 5.90375 30.6291L5.00711 25.5578C4.95348 25.2584 4.96991 24.9516 5.05525 24.6589C5.14059 24.3661 5.29279 24.0944 5.50122 23.8628C5.70964 23.6311 5.96927 23.4451 6.26197 23.3177C6.55468 23.1902 6.8734 23.1245 7.19589 23.125H38.8043C40.175 23.125 41.2191 24.2836 40.9931 25.5578L40.094 30.6291Z" fill="white"/>
</svg>
