<svg width="21" height="22" viewBox="0 0 21 22" fill="none" xmlns="http://www.w3.org/2000/svg">
<path d="M10.501 7.48331C9.66562 7.48331 8.8644 7.8212 8.27366 8.42266C7.68292 9.02411 7.35105 9.83986 7.35105 10.6904C7.35105 11.541 7.68292 12.3568 8.27366 12.9582C8.8644 13.5597 9.66562 13.8976 10.501 13.8976C11.3365 13.8976 12.1377 13.5597 12.7284 12.9582C13.3192 12.3568 13.651 11.541 13.651 10.6904C13.651 9.83986 13.3192 9.02411 12.7284 8.42266C12.1377 7.8212 11.3365 7.48331 10.501 7.48331ZM10.501 5.34522C11.8934 5.34522 13.2288 5.90838 14.2134 6.9108C15.1979 7.91322 15.751 9.2728 15.751 10.6904C15.751 12.1081 15.1979 13.4677 14.2134 14.4701C13.2288 15.4725 11.8934 16.0357 10.501 16.0357C9.10866 16.0357 7.77331 15.4725 6.78874 14.4701C5.80417 13.4677 5.25105 12.1081 5.25105 10.6904C5.25105 9.2728 5.80417 7.91322 6.78874 6.9108C7.77331 5.90838 9.10866 5.34522 10.501 5.34522ZM17.326 5.07796C17.326 5.43237 17.1878 5.77227 16.9416 6.02287C16.6955 6.27348 16.3616 6.41427 16.0135 6.41427C15.6655 6.41427 15.3316 6.27348 15.0855 6.02287C14.8393 5.77227 14.701 5.43237 14.701 5.07796C14.701 4.72355 14.8393 4.38366 15.0855 4.13305C15.3316 3.88244 15.6655 3.74166 16.0135 3.74166C16.3616 3.74166 16.6955 3.88244 16.9416 4.13305C17.1878 4.38366 17.326 4.72355 17.326 5.07796ZM10.501 2.13809C7.90335 2.13809 7.47915 2.14557 6.2706 2.20009C5.4474 2.23965 4.8951 2.3519 4.3827 2.55502C3.95412 2.71577 3.56656 2.97262 3.2487 3.30655C2.92034 3.63007 2.66769 4.02467 2.5095 4.46112C2.31 4.98495 2.19975 5.5462 2.16195 6.38326C2.10735 7.56349 2.1 7.97614 2.1 10.6904C2.1 13.3363 2.10735 13.7672 2.1609 14.9976C2.19975 15.8347 2.31 16.3981 2.50845 16.9187C2.68695 17.3837 2.89695 17.7183 3.24555 18.0733C3.5994 18.4325 3.92805 18.6473 4.37955 18.8248C4.89825 19.029 5.45055 19.1423 6.26955 19.1808C7.42875 19.2364 7.83405 19.2428 10.5 19.2428C13.0987 19.2428 13.5219 19.2353 14.7304 19.1808C15.5515 19.1412 16.1038 19.029 16.6173 18.8269C17.0459 18.6662 17.4334 18.4093 17.7513 18.0754C18.1051 17.7162 18.3162 17.3816 18.4905 16.9208C18.69 16.3949 18.8013 15.8325 18.8391 14.9966C18.8937 13.8174 18.9 13.4037 18.9 10.6904C18.9 8.04563 18.8926 7.61373 18.8391 6.38326C18.8002 5.54727 18.6889 4.98282 18.4905 4.46112C18.3326 4.02477 18.0803 3.63018 17.7523 3.30655C17.4346 2.97224 17.047 2.71501 16.6183 2.55395C16.1038 2.35083 15.5515 2.23858 14.7304 2.20009C13.5723 2.1445 13.167 2.13809 10.5 2.13809M10.5 0C13.3528 0 13.7088 0.0106904 14.8291 0.0641426C15.9463 0.117595 16.7086 0.296125 17.3775 0.561248C18.0705 0.832786 18.6543 1.20054 19.2381 1.79386C19.7722 2.32809 20.1854 2.97459 20.4487 3.6882C20.7081 4.36918 20.8845 5.14531 20.937 6.28384C20.9863 7.42344 21 7.78585 21 10.6904C21 13.595 20.9895 13.9574 20.937 15.097C20.8845 16.2366 20.7081 17.0106 20.4487 17.6927C20.1854 18.4063 19.7722 19.0528 19.2381 19.587C18.7134 20.1308 18.0784 20.5515 17.3775 20.8196C16.7086 21.0837 15.9463 21.2633 14.8291 21.3167C13.7088 21.367 13.3528 21.3809 10.5 21.3809C7.64715 21.3809 7.2912 21.3702 6.17085 21.3167C5.05365 21.2633 4.2924 21.0837 3.6225 20.8196C2.9216 20.5515 2.28662 20.1308 1.7619 19.587C1.22777 19.0528 0.814607 18.4063 0.55125 17.6927C0.29085 17.0117 0.1155 16.2356 0.0629999 15.097C0.0125999 13.9574 0 13.595 0 10.6904C0 7.78585 0.0104999 7.42344 0.0629999 6.28384C0.1155 5.14424 0.29085 4.37025 0.55125 3.6882C0.814607 2.97459 1.22777 2.32809 1.7619 1.79386C2.28662 1.25004 2.9216 0.829382 3.6225 0.561248C4.29135 0.296125 5.0526 0.117595 6.17085 0.0641426C7.29225 0.0138975 7.6482 0 10.501 0" fill="white"/>
</svg>
