<svg width="27" height="28" viewBox="0 0 27 28" fill="none" xmlns="http://www.w3.org/2000/svg">
<path d="M10.3846 25.2C10.3846 26.7437 11.7824 28 13.5 28C15.2176 28 16.6154 26.7437 16.6154 25.2C16.6135 24.6228 16.4128 24.0603 16.0409 23.5897C15.6691 23.1191 15.1442 22.7635 14.5385 22.5717V19.6H12.4615V22.5717C11.8558 22.7635 11.3309 23.1191 10.9591 23.5897C10.5872 24.0603 10.3865 24.6228 10.3846 25.2ZM13.5 24.2667C13.7754 24.2667 14.0396 24.365 14.2343 24.54C14.4291 24.7151 14.5385 24.9525 14.5385 25.2C14.5385 25.4475 14.4291 25.6849 14.2343 25.86C14.0396 26.035 13.7754 26.1333 13.5 26.1333C13.2246 26.1333 12.9604 26.035 12.7657 25.86C12.5709 25.6849 12.4615 25.4475 12.4615 25.2C12.4615 24.9525 12.5709 24.7151 12.7657 24.54C12.9604 24.365 13.2246 24.2667 13.5 24.2667ZM12.4615 5.42827V8.4H14.5385V5.42827C15.1442 5.23651 15.6691 4.88092 16.0409 4.41032C16.4128 3.93973 16.6135 3.37721 16.6154 2.8C16.6154 1.25627 15.2176 0 13.5 0C11.7824 0 10.3846 1.25627 10.3846 2.8C10.3846 4.0152 11.2559 5.04187 12.4615 5.42827ZM12.4615 2.8C12.4615 2.55246 12.5709 2.31507 12.7657 2.14003C12.9604 1.965 13.2246 1.86667 13.5 1.86667C13.7754 1.86667 14.0396 1.965 14.2343 2.14003C14.4291 2.31507 14.5385 2.55246 14.5385 2.8C14.5385 3.04754 14.4291 3.28493 14.2343 3.45997C14.0396 3.635 13.7754 3.73333 13.5 3.73333C13.2246 3.73333 12.9604 3.635 12.7657 3.45997C12.5709 3.28493 12.4615 3.04754 12.4615 2.8ZM23.8846 16.8C23.1638 16.8027 22.4668 17.0322 21.9147 17.4487L19.1866 15.9777L18.1482 17.5952L20.8315 19.0419C20.7401 19.4485 20.7502 19.8684 20.8612 20.2711C20.9722 20.6738 21.1813 21.0494 21.4734 21.3707C21.7655 21.6919 22.1333 21.9509 22.5503 22.1289C22.9672 22.3069 23.423 22.3995 23.8846 22.4C25.6022 22.4 27 21.1437 27 19.6C27 18.0563 25.6022 16.8 23.8846 16.8ZM23.8846 20.5333C23.6092 20.5333 23.3451 20.435 23.1503 20.26C22.9556 20.0849 22.8462 19.8475 22.8462 19.6C22.8462 19.3525 22.9556 19.1151 23.1503 18.94C23.3451 18.765 23.6092 18.6667 23.8846 18.6667C24.16 18.6667 24.4242 18.765 24.6189 18.94C24.8137 19.1151 24.9231 19.3525 24.9231 19.6C24.9231 19.8475 24.8137 20.0849 24.6189 20.26C24.4242 20.435 24.16 20.5333 23.8846 20.5333ZM23.8846 5.6C23.423 5.60048 22.9672 5.69306 22.5503 5.87107C22.1333 6.04907 21.7655 6.30806 21.4734 6.62934C21.1813 6.95062 20.9722 7.32617 20.8612 7.72889C20.7502 8.13162 20.7401 8.55146 20.8315 8.95813L18.198 10.3777L19.2365 11.9952L21.9147 10.5513C22.4668 10.9678 23.1638 11.1973 23.8846 11.2C25.6022 11.2 27 9.94373 27 8.4C27 6.85627 25.6022 5.6 23.8846 5.6ZM23.8846 9.33333C23.6092 9.33333 23.3451 9.235 23.1503 9.05997C22.9556 8.88493 22.8462 8.64754 22.8462 8.4C22.8462 8.15246 22.9556 7.91507 23.1503 7.74003C23.3451 7.565 23.6092 7.46667 23.8846 7.46667C24.16 7.46667 24.4242 7.565 24.6189 7.74003C24.8137 7.91507 24.9231 8.15246 24.9231 8.4C24.9231 8.64754 24.8137 8.88493 24.6189 9.05997C24.4242 9.235 24.16 9.33333 23.8846 9.33333ZM8.802 10.3787L6.16846 8.95813C6.21 8.77769 6.23077 8.59164 6.23077 8.4C6.23077 6.85627 4.833 5.6 3.11538 5.6C1.39777 5.6 0 6.85627 0 8.4C0 9.94373 1.39777 11.2 3.11538 11.2C3.8362 11.1973 4.53321 10.9678 5.08535 10.5513L7.76458 11.9952L8.802 10.3787ZM3.11538 9.33333C2.83997 9.33333 2.57583 9.235 2.38108 9.05997C2.18633 8.88493 2.07692 8.64754 2.07692 8.4C2.07692 8.15246 2.18633 7.91507 2.38108 7.74003C2.57583 7.565 2.83997 7.46667 3.11538 7.46667C3.3908 7.46667 3.65494 7.565 3.84969 7.74003C4.04444 7.91507 4.15385 8.15246 4.15385 8.4C4.15385 8.64754 4.04444 8.88493 3.84969 9.05997C3.65494 9.235 3.3908 9.33333 3.11538 9.33333ZM8.78954 17.6288L7.75108 16.0113L5.08535 17.4487C4.53321 17.0322 3.8362 16.8027 3.11538 16.8C1.39777 16.8 0 18.0563 0 19.6C0 21.1437 1.39777 22.4 3.11538 22.4C3.5769 22.3995 4.03255 22.3069 4.44944 22.129C4.86633 21.951 5.23408 21.6921 5.52615 21.371C5.81822 21.0498 6.02734 20.6744 6.13841 20.2718C6.24949 19.8691 6.25975 19.4494 6.16846 19.0428L8.78954 17.6288ZM3.11538 20.5333C2.83997 20.5333 2.57583 20.435 2.38108 20.26C2.18633 20.0849 2.07692 19.8475 2.07692 19.6C2.07692 19.3525 2.18633 19.1151 2.38108 18.94C2.57583 18.765 2.83997 18.6667 3.11538 18.6667C3.3908 18.6667 3.65494 18.765 3.84969 18.94C4.04444 19.1151 4.15385 19.3525 4.15385 19.6C4.15385 19.8475 4.04444 20.0849 3.84969 20.26C3.65494 20.435 3.3908 20.5333 3.11538 20.5333ZM13.5 17.7333C11.2092 17.7333 9.34615 16.0589 9.34615 14C9.34615 11.9411 11.2092 10.2667 13.5 10.2667C15.7908 10.2667 17.6538 11.9411 17.6538 14C17.6538 16.0589 15.7908 17.7333 13.5 17.7333ZM13.5 12.1333C12.3556 12.1333 11.4231 12.9705 11.4231 14C11.4231 15.0295 12.3556 15.8667 13.5 15.8667C14.6444 15.8667 15.5769 15.0295 15.5769 14C15.5769 12.9705 14.6454 12.1333 13.5 12.1333Z" fill="#36C5F1"/>
</svg>
