<svg width="25" height="28" viewBox="0 0 25 28" fill="none" xmlns="http://www.w3.org/2000/svg">
<path d="M22.7083 20.6957V18.8696C22.627 18.0322 22.2846 17.2591 21.7467 16.6978C21.2088 16.1364 20.5128 15.8262 19.7917 15.8262C19.0705 15.8262 18.3746 16.1364 17.8366 16.6978C17.2987 17.2591 16.9564 18.0322 16.875 18.8696V20.6957C16.5507 20.7214 16.2453 20.8835 16.0155 21.1521C15.7857 21.4207 15.6469 21.7776 15.625 22.1566V26.4175C15.6264 26.8161 15.7555 27.1997 15.9869 27.4926C16.2182 27.7856 16.5351 27.9666 16.875 28.0001H22.6042C22.9453 27.9984 23.2735 27.8476 23.5241 27.5772C23.7748 27.3068 23.9297 26.9365 23.9583 26.5392V22.2783C23.9569 21.8797 23.8278 21.4961 23.5965 21.2032C23.3651 20.9102 23.0482 20.7292 22.7083 20.6957ZM18.2292 18.8696C18.2389 18.6442 18.2875 18.4234 18.3721 18.2205C18.4568 18.0175 18.5756 17.8367 18.7216 17.6889C18.8676 17.541 19.0376 17.4292 19.2215 17.3602C19.4054 17.2911 19.5993 17.2662 19.7917 17.287C19.984 17.2662 20.1779 17.2911 20.3618 17.3602C20.5457 17.4292 20.7158 17.541 20.8617 17.6889C21.0077 17.8367 21.1266 18.0175 21.2112 18.2205C21.2958 18.4234 21.3445 18.6442 21.3542 18.8696V20.6957H18.2292V18.8696Z" fill="#36C5F1"/>
<path d="M25 13.3913V2.43478C25 1.78904 24.7805 1.16974 24.3898 0.713131C23.9991 0.256521 23.4692 0 22.9167 0L2.08333 0C1.5308 0 1.0009 0.256521 0.610194 0.713131C0.219493 1.16974 0 1.78904 0 2.43478L0 24.3478C0 24.9936 0.219493 25.6129 0.610194 26.0695C1.0009 26.5261 1.5308 26.7826 2.08333 26.7826H13.5417V24.3478H2.08333V2.43478H22.9167V13.3913" fill="#36C5F1"/>
<path d="M6.24935 4.86938H4.16602V7.30417H6.24935V4.86938ZM20.8327 4.86938H8.33268V7.30417H20.8327V4.86938ZM13.541 19.4781H8.33268V21.9129H13.541V19.4781ZM6.24935 19.4781H4.16602V21.9129H6.24935V19.4781ZM10.416 9.73895H8.33268V12.1737H10.416V9.73895ZM20.8327 9.73895H12.4993V12.1737H20.8327V9.73895ZM15.4243 14.6085H12.4993V17.0433H14.791V16.4346C14.802 15.7554 15.0276 15.105 15.4243 14.6085ZM10.416 14.6085H8.33268V17.0433H10.416V14.6085Z" fill="#36C5F1"/>
</svg>
