<svg width="19" height="20" viewBox="0 0 19 20" fill="none" xmlns="http://www.w3.org/2000/svg">
<path d="M16.8889 0C17.4488 0 17.9858 0.225262 18.3817 0.626232C18.7776 1.0272 19 1.57103 19 2.13809V17.1047C19 17.6718 18.7776 18.2156 18.3817 18.6166C17.9858 19.0175 17.4488 19.2428 16.8889 19.2428H2.11111C1.55121 19.2428 1.01424 19.0175 0.61833 18.6166C0.22242 18.2156 0 17.6718 0 17.1047V2.13809C0 1.57103 0.22242 1.0272 0.61833 0.626232C1.01424 0.225262 1.55121 0 2.11111 0H16.8889ZM16.3611 16.5702V10.9043C16.3611 9.97995 15.9986 9.09351 15.3532 8.43993C14.7079 7.78635 13.8326 7.41917 12.92 7.41917C12.0228 7.41917 10.9778 7.97507 10.4711 8.80893V7.62229H7.52611V16.5702H10.4711V11.2998C10.4711 10.4766 11.1256 9.80314 11.9383 9.80314C12.3303 9.80314 12.7061 9.96082 12.9833 10.2415C13.2604 10.5222 13.4161 10.9029 13.4161 11.2998V16.5702H16.3611ZM4.09556 5.94389C4.56587 5.94389 5.01693 5.75467 5.34949 5.41785C5.68206 5.08104 5.86889 4.62422 5.86889 4.14789C5.86889 3.15368 5.07722 2.34121 4.09556 2.34121C3.62244 2.34121 3.1687 2.53155 2.83416 2.87037C2.49961 3.20919 2.31167 3.66873 2.31167 4.14789C2.31167 5.1421 3.11389 5.94389 4.09556 5.94389ZM5.56278 16.5702V7.62229H2.63889V16.5702H5.56278Z" fill="white"/>
</svg>
