<svg width="25" height="28" viewBox="0 0 25 28" fill="none" xmlns="http://www.w3.org/2000/svg">
<path d="M18.7281 2.8C18.632 2.02998 18.2226 1.31871 17.5781 0.80216C16.9335 0.28561 16.0991 2.34088e-05 15.2344 0H9.76562C8.90088 2.34088e-05 8.06648 0.28561 7.42194 0.80216C6.77741 1.31871 6.36796 2.02998 6.27187 2.8H3.51562C2.58322 2.8 1.68901 3.13187 1.0297 3.72261C0.370395 4.31335 0 5.11457 0 5.95V24.85C0 25.6854 0.370395 26.4866 1.0297 27.0774C1.68901 27.6681 2.58322 28 3.51562 28H21.4844C21.9461 28 22.4032 27.9185 22.8297 27.7602C23.2563 27.6019 23.6438 27.3699 23.9703 27.0774C24.2968 26.7849 24.5557 26.4376 24.7324 26.0555C24.9091 25.6733 25 25.2637 25 24.85V5.95C25 5.53634 24.9091 5.12672 24.7324 4.74455C24.5557 4.36237 24.2968 4.01512 23.9703 3.72261C23.6438 3.43011 23.2563 3.19808 22.8297 3.03978C22.4032 2.88148 21.9461 2.8 21.4844 2.8H18.7281ZM18.7422 2.9344L18.75 3.15C18.75 3.0772 18.7474 3.00533 18.7422 2.9344ZM9.76562 6.3H15.2344C16.4531 6.3 17.5266 5.7442 18.1578 4.9H21.4844C21.7952 4.9 22.0932 5.01062 22.313 5.20754C22.5328 5.40445 22.6562 5.67152 22.6562 5.95V24.85C22.6562 25.1285 22.5328 25.3955 22.313 25.5925C22.0932 25.7894 21.7952 25.9 21.4844 25.9H3.51562C3.20482 25.9 2.90675 25.7894 2.68698 25.5925C2.46721 25.3955 2.34375 25.1285 2.34375 24.85V5.95C2.34375 5.67152 2.46721 5.40445 2.68698 5.20754C2.90675 5.01062 3.20482 4.9 3.51562 4.9H6.84219C7.47344 5.7442 8.54688 6.3 9.76562 6.3ZM9.76562 2.1H15.2344C15.5452 2.1 15.8432 2.21062 16.063 2.40754C16.2828 2.60445 16.4062 2.87152 16.4062 3.15C16.4062 3.42848 16.2828 3.69555 16.063 3.89246C15.8432 4.08938 15.5452 4.2 15.2344 4.2H9.76562C9.45482 4.2 9.15675 4.08938 8.93699 3.89246C8.71722 3.69555 8.59375 3.42848 8.59375 3.15C8.59375 2.87152 8.71722 2.60445 8.93699 2.40754C9.15675 2.21062 9.45482 2.1 9.76562 2.1ZM19.5312 17.15C19.5312 16.8715 19.4078 16.6045 19.188 16.4075C18.9682 16.2106 18.6702 16.1 18.3594 16.1C18.0486 16.1 17.7505 16.2106 17.5307 16.4075C17.311 16.6045 17.1875 16.8715 17.1875 17.15V21.35C17.1875 21.6285 17.311 21.8955 17.5307 22.0925C17.7505 22.2894 18.0486 22.4 18.3594 22.4C18.6702 22.4 18.9682 22.2894 19.188 22.0925C19.4078 21.8955 19.5312 21.6285 19.5312 21.35V17.15ZM12.5 12.6C12.8108 12.6 13.1089 12.7106 13.3286 12.9075C13.5484 13.1045 13.6719 13.3715 13.6719 13.65V21.35C13.6719 21.6285 13.5484 21.8955 13.3286 22.0925C13.1089 22.2894 12.8108 22.4 12.5 22.4C12.1892 22.4 11.8911 22.2894 11.6714 22.0925C11.4516 21.8955 11.3281 21.6285 11.3281 21.35V13.65C11.3281 13.3715 11.4516 13.1045 11.6714 12.9075C11.8911 12.7106 12.1892 12.6 12.5 12.6ZM7.8125 10.85C7.8125 10.5715 7.68903 10.3045 7.46926 10.1075C7.2495 9.91063 6.95143 9.8 6.64062 9.8C6.32982 9.8 6.03175 9.91063 5.81198 10.1075C5.59222 10.3045 5.46875 10.5715 5.46875 10.85V21.35C5.46875 21.6285 5.59222 21.8955 5.81198 22.0925C6.03175 22.2894 6.32982 22.4 6.64062 22.4C6.95143 22.4 7.2495 22.2894 7.46926 22.0925C7.68903 21.8955 7.8125 21.6285 7.8125 21.35V10.85Z" fill="#36C5F1"/>
</svg>
