<svg width="18" height="18" viewBox="0 0 18 18" fill="none" xmlns="http://www.w3.org/2000/svg">
<path d="M9.259 17.6044C9.02352 17.8577 8.70431 18 8.3715 18C8.03869 18 7.71949 17.8577 7.48401 17.6044L0.36729 9.93987C0.132102 9.68626 0 9.34249 0 8.98405C0 8.62562 0.132102 8.28185 0.36729 8.02824L7.48401 0.363672C7.72203 0.124462 8.03701 -0.00585556 8.36252 0.000200272C8.68804 0.00625801 8.99864 0.148211 9.22886 0.396133C9.45906 0.644068 9.59087 0.978588 9.59649 1.32916C9.60211 1.67973 9.48111 2.01896 9.259 2.2753L4.28567 7.63148L16.7441 7.63148C17.0772 7.63148 17.3966 7.77399 17.6322 8.02764C17.8677 8.2813 18 8.62533 18 8.98405C18 9.34278 17.8677 9.68681 17.6322 9.94047C17.3966 10.1941 17.0772 10.3366 16.7441 10.3366H4.28567L9.259 15.6928C9.49419 15.9464 9.62629 16.2902 9.62629 16.6486C9.62629 17.0071 9.49419 17.3508 9.259 17.6044Z" fill="white"/>
</svg>
