<svg width="18" height="18" viewBox="0 0 18 18" fill="none" xmlns="http://www.w3.org/2000/svg">
<path d="M8.741 0.395564C8.97648 0.142272 9.29569 0 9.6285 0C9.96131 0 10.2805 0.142272 10.516 0.395564L17.6327 8.06013C17.8679 8.31374 18 8.65751 18 9.01595C18 9.37438 17.8679 9.71815 17.6327 9.97176L10.516 17.6363C10.278 17.8755 9.96299 18.0059 9.63748 17.9998C9.31196 17.9937 9.00136 17.8518 8.77114 17.6039C8.54094 17.3559 8.40913 17.0214 8.40351 16.6708C8.39789 16.3203 8.51889 15.981 8.741 15.7247L13.7143 10.3685L1.25589 10.3685C0.922808 10.3685 0.603367 10.226 0.367842 9.97236C0.132317 9.7187 0 9.37467 0 9.01595C0 8.65722 0.132317 8.31319 0.367842 8.05953C0.603367 7.80588 0.922808 7.66338 1.25589 7.66338L13.7143 7.66338L8.741 2.3072C8.50581 2.05359 8.37371 1.70981 8.37371 1.35138C8.37371 0.992948 8.50581 0.649171 8.741 0.395564Z" fill="white"/>
</svg>
