<svg width="42" height="37" viewBox="0 0 42 37" fill="none" xmlns="http://www.w3.org/2000/svg">
<path d="M8.8421 4.93333C8.8421 2.21229 10.8247 0 13.2632 0H37.5789C40.0174 0 42 2.21229 42 4.93333V23.4333H35.3684V22.2C35.3684 20.8356 34.3806 19.7333 33.1579 19.7333H28.7368C27.5141 19.7333 26.5263 20.8356 26.5263 22.2V23.4333H17.6082C18.3612 21.9842 18.7895 20.296 18.7895 18.5C18.7895 13.0502 14.8312 8.63333 9.94737 8.63333C9.57434 8.63333 9.20132 8.65646 8.8421 8.71042V4.93333ZM23.0033 32.0667C22.651 30.2013 21.8773 28.5131 20.7859 27.1333H42C42 29.8544 40.0174 32.0667 37.5789 32.0667H23.0033ZM4.42105 18.5C4.42105 16.8645 5.00329 15.296 6.03967 14.1395C7.07606 12.983 8.4817 12.3333 9.94737 12.3333C11.413 12.3333 12.8187 12.983 13.8551 14.1395C14.8914 15.296 15.4737 16.8645 15.4737 18.5C15.4737 20.1355 14.8914 21.704 13.8551 22.8605C12.8187 24.017 11.413 24.6667 9.94737 24.6667C8.4817 24.6667 7.07606 24.017 6.03967 22.8605C5.00329 21.704 4.42105 20.1355 4.42105 18.5ZM0 34.5333C0 30.4479 2.97039 27.1333 6.63158 27.1333H13.2632C16.9243 27.1333 19.8947 30.4479 19.8947 34.5333C19.8947 35.8977 18.9069 37 17.6842 37H2.21053C0.987829 37 0 35.8977 0 34.5333Z" fill="#36C5F1"/>
</svg>
