<svg width="38" height="33" viewBox="0 0 38 33" fill="none" xmlns="http://www.w3.org/2000/svg">
<path d="M20.0569 0.348047C19.4156 -0.116016 18.5844 -0.116016 17.9431 0.348047L9.87406 6.1875H2.85C1.27656 6.1875 0 7.57324 0 9.28125V29.9062C0 31.6143 1.27656 33 2.85 33H15.2V26.8125C15.2 24.5373 16.9041 22.6875 19 22.6875C21.0959 22.6875 22.8 24.5373 22.8 26.8125V33H35.15C36.7234 33 38 31.6143 38 29.9062V9.28125C38 7.57324 36.7234 6.1875 35.15 6.1875H28.1259L20.0569 0.348047ZM5.7 12.375H7.6C8.1225 12.375 8.55 12.8391 8.55 13.4062V17.5312C8.55 18.0984 8.1225 18.5625 7.6 18.5625H5.7C5.1775 18.5625 4.75 18.0984 4.75 17.5312V13.4062C4.75 12.8391 5.1775 12.375 5.7 12.375ZM29.45 13.4062C29.45 12.8391 29.8775 12.375 30.4 12.375H32.3C32.8225 12.375 33.25 12.8391 33.25 13.4062V17.5312C33.25 18.0984 32.8225 18.5625 32.3 18.5625H30.4C29.8775 18.5625 29.45 18.0984 29.45 17.5312V13.4062ZM5.7 20.625H7.6C8.1225 20.625 8.55 21.0891 8.55 21.6562V25.7812C8.55 26.3484 8.1225 26.8125 7.6 26.8125H5.7C5.1775 26.8125 4.75 26.3484 4.75 25.7812V21.6562C4.75 21.0891 5.1775 20.625 5.7 20.625ZM29.45 21.6562C29.45 21.0891 29.8775 20.625 30.4 20.625H32.3C32.8225 20.625 33.25 21.0891 33.25 21.6562V25.7812C33.25 26.3484 32.8225 26.8125 32.3 26.8125H30.4C29.8775 26.8125 29.45 26.3484 29.45 25.7812V21.6562ZM13.775 11.3438C13.775 9.83948 14.3255 8.39681 15.3054 7.33313C16.2852 6.26945 17.6142 5.67188 19 5.67188C20.3858 5.67188 21.7148 6.26945 22.6946 7.33313C23.6745 8.39681 24.225 9.83948 24.225 11.3438C24.225 12.848 23.6745 14.2907 22.6946 15.3544C21.7148 16.4181 20.3858 17.0156 19 17.0156C17.6142 17.0156 16.2852 16.4181 15.3054 15.3544C14.3255 14.2907 13.775 12.848 13.775 11.3438ZM19 8.25C18.4775 8.25 18.05 8.71406 18.05 9.28125V11.3438C18.05 11.9109 18.4775 12.375 19 12.375H20.9C21.4225 12.375 21.85 11.9109 21.85 11.3438C21.85 10.7766 21.4225 10.3125 20.9 10.3125H19.95V9.28125C19.95 8.71406 19.5225 8.25 19 8.25Z" fill="#36C5F1"/>
</svg>
