<svg width="28" height="30" viewBox="0 0 28 30" fill="none" xmlns="http://www.w3.org/2000/svg">
<path d="M27.9344 22.5929C27.6082 22.2214 26.4563 21.1229 24.3387 19.6697C22.2055 18.2037 20.6324 17.2897 20.1811 17.0765C20.1413 17.0577 20.0975 17.0508 20.0544 17.0565C20.0112 17.0623 19.9703 17.0805 19.9361 17.1093C19.2092 17.7153 17.9854 18.8285 17.9198 18.8886C17.496 19.2768 17.496 19.2768 17.1492 19.1559C16.5391 18.9421 14.6441 17.8663 12.9928 16.097C11.3415 14.3277 10.2834 12.2517 10.0833 11.6003C9.96897 11.2288 9.96897 11.2288 10.3334 10.7757C10.3896 10.7056 11.4315 9.39731 11.9984 8.62091C12.0253 8.58434 12.0423 8.54064 12.0477 8.49449C12.0531 8.44835 12.0467 8.4015 12.029 8.35899C11.8296 7.8759 10.9746 6.1948 9.60333 3.91435C8.24205 1.65127 7.21577 0.419845 6.86826 0.0710624C6.83637 0.0388922 6.79696 0.0165129 6.75417 0.0062824C6.71138 -0.00394806 6.6668 -0.00165073 6.62513 0.0129321C5.4104 0.459209 4.23837 1.02863 3.12504 1.71341C2.05027 2.38133 1.03275 3.14936 0.0843302 4.00856C0.0512229 4.03865 0.0264016 4.07781 0.012528 4.12183C-0.00134557 4.16585 -0.00374801 4.21308 0.00557818 4.25845C0.136207 4.90925 0.760598 7.62601 2.69815 11.3891C4.67508 15.2297 6.04511 17.1975 8.94832 20.2904C11.8515 23.3834 13.7503 24.9362 17.3467 27.0496C20.8668 29.1209 23.4093 29.7891 24.0168 29.9274C24.0594 29.9372 24.1036 29.9346 24.1449 29.9198C24.1861 29.905 24.2229 29.8785 24.2512 29.8432C25.0548 28.8293 25.773 27.7415 26.3975 26.5926C27.038 25.4023 27.5706 24.1494 27.9882 22.8508C28.0016 22.8066 28.0036 22.7594 27.9942 22.714C27.9847 22.6687 27.9641 22.6269 27.9344 22.5929Z" fill="white"/>
</svg>
