<svg width="36" height="43" viewBox="0 0 36 43" fill="none" xmlns="http://www.w3.org/2000/svg">
<path d="M35.9157 32.4554C35.4962 31.9217 34.0152 30.3438 31.2926 28.2561C28.55 26.1502 26.5273 24.8372 25.9471 24.531C25.896 24.5039 25.8397 24.4939 25.7842 24.5022C25.7287 24.5105 25.6761 24.5367 25.6321 24.578C24.6976 25.4486 23.1241 27.0477 23.0397 27.134C22.4949 27.6917 22.4949 27.6917 22.0489 27.518C21.2646 27.2108 18.8281 25.6655 16.705 23.1238C14.5819 20.5822 13.2215 17.6 12.9643 16.6641C12.8172 16.1304 12.8172 16.1304 13.2857 15.4797C13.3581 15.3789 14.6977 13.4995 15.4265 12.3842C15.4611 12.3317 15.483 12.2689 15.4899 12.2026C15.4969 12.1363 15.4886 12.069 15.4659 12.0079C15.2095 11.314 14.1102 8.89901 12.3471 5.62308C10.5969 2.3721 9.27742 0.60312 8.83062 0.102083C8.78962 0.0558699 8.73894 0.0237212 8.68393 0.00902486C8.62891 -0.00567151 8.5716 -0.00237132 8.51802 0.0185773C6.95623 0.659667 5.44933 1.47765 4.0179 2.46137C2.63606 3.42085 1.32783 4.52415 0.108425 5.75842C0.0658581 5.80164 0.0339449 5.85789 0.0161075 5.92113C-0.00173002 5.98437 -0.00481887 6.05222 0.00717195 6.1174C0.175123 7.05228 0.977912 10.955 3.46905 16.3608C6.01081 21.878 7.77229 24.7047 11.505 29.1478C15.2377 33.5909 17.679 35.8216 22.3029 38.8575C26.8287 41.833 30.0977 42.7929 30.8788 42.9916C30.9335 43.0057 30.9904 43.002 31.0434 42.9807C31.0965 42.9594 31.1437 42.9214 31.1801 42.8706C32.2133 41.4142 33.1368 39.8516 33.9397 38.201C34.7631 36.4912 35.448 34.6913 35.9848 32.8259C36.002 32.7624 36.0047 32.6945 35.9925 32.6294C35.9804 32.5643 35.9538 32.5042 35.9157 32.4554Z" fill="white"/>
</svg>
