<svg width="16" height="20" viewBox="0 0 16 20" fill="none" xmlns="http://www.w3.org/2000/svg">
<path d="M12.44 3.01471C11.7566 2.18034 11.3799 1.10903 11.38 0H8.29V13.2562C8.26666 13.9737 7.98352 14.6535 7.50031 15.1521C7.01709 15.6507 6.3716 15.9292 5.7 15.9288C4.28 15.9288 3.1 14.6887 3.1 13.1492C3.1 11.3105 4.76 9.93142 6.47 10.498V7.11984C3.02 6.62808 0 9.49312 0 13.1492C0 16.7092 2.76 19.2428 5.69 19.2428C8.83 19.2428 11.38 16.5167 11.38 13.1492V6.42496C12.633 7.38694 14.1374 7.90307 15.68 7.90024V4.59689C15.68 4.59689 13.8 4.69311 12.44 3.01471Z" fill="white"/>
</svg>
