<svg width="46" height="41" viewBox="0 0 46 41" fill="none" xmlns="http://www.w3.org/2000/svg">
<path d="M11.5 19.4211C10.1408 19.4211 8.79495 19.1699 7.53923 18.6819C6.28351 18.1939 5.14253 17.4786 4.18144 16.5769C3.22036 15.6752 2.45798 14.6047 1.93785 13.4266C1.41771 12.2484 1.15 10.9857 1.15 9.71053C1.15 8.43532 1.41771 7.1726 1.93785 5.99447C2.45798 4.81633 3.22036 3.74585 4.18144 2.84415C5.14253 1.94244 6.28351 1.22717 7.53923 0.73917C8.79495 0.25117 10.1408 -1.9002e-08 11.5 0C14.245 3.83763e-08 16.8776 1.02307 18.8186 2.84415C20.7596 4.66522 21.85 7.13514 21.85 9.71053C21.85 12.2859 20.7596 14.7558 18.8186 16.5769C16.8776 18.398 14.245 19.4211 11.5 19.4211ZM35.65 28.0526C33.21 28.0526 30.87 27.1432 29.1446 25.5245C27.4193 23.9058 26.45 21.7103 26.45 19.4211C26.45 17.1318 27.4193 14.9363 29.1446 13.3176C30.87 11.6989 33.21 10.7895 35.65 10.7895C38.09 10.7895 40.43 11.6989 42.1554 13.3176C43.8807 14.9363 44.85 17.1318 44.85 19.4211C44.85 21.7103 43.8807 23.9058 42.1554 25.5245C40.43 27.1432 38.09 28.0526 35.65 28.0526ZM35.65 30.2105C38.395 30.2105 41.0276 31.2336 42.9686 33.0547C44.9096 34.8758 46 37.3457 46 39.9211V41H25.3V39.9211C25.3 37.3457 26.3904 34.8758 28.3314 33.0547C30.2724 31.2336 32.905 30.2105 35.65 30.2105ZM11.5 21.5789C13.0102 21.5789 14.5056 21.858 15.9009 22.4002C17.2961 22.9425 18.5639 23.7372 19.6317 24.7391C20.6996 25.741 21.5467 26.9304 22.1246 28.2395C22.7025 29.5485 23 30.9515 23 32.3684V41H0V32.3684C0 29.5069 1.2116 26.7625 3.36827 24.7391C5.52494 22.7157 8.45001 21.5789 11.5 21.5789Z" fill="white"/>
</svg>
