<svg width="50" height="45" viewBox="0 0 50 45" fill="none" xmlns="http://www.w3.org/2000/svg">
<path d="M26.3906 0.474609C25.5469 -0.158203 24.4531 -0.158203 23.6094 0.474609L12.9922 8.4375H3.75C1.67969 8.4375 0 10.3271 0 12.6562V40.7812C0 43.1104 1.67969 45 3.75 45H20V36.5625C20 33.46 22.2422 30.9375 25 30.9375C27.7578 30.9375 30 33.46 30 36.5625V45H46.25C48.3203 45 50 43.1104 50 40.7812V12.6562C50 10.3271 48.3203 8.4375 46.25 8.4375H37.0078L26.3906 0.474609ZM7.5 16.875H10C10.6875 16.875 11.25 17.5078 11.25 18.2812V23.9062C11.25 24.6797 10.6875 25.3125 10 25.3125H7.5C6.8125 25.3125 6.25 24.6797 6.25 23.9062V18.2812C6.25 17.5078 6.8125 16.875 7.5 16.875ZM38.75 18.2812C38.75 17.5078 39.3125 16.875 40 16.875H42.5C43.1875 16.875 43.75 17.5078 43.75 18.2812V23.9062C43.75 24.6797 43.1875 25.3125 42.5 25.3125H40C39.3125 25.3125 38.75 24.6797 38.75 23.9062V18.2812ZM7.5 28.125H10C10.6875 28.125 11.25 28.7578 11.25 29.5312V35.1562C11.25 35.9297 10.6875 36.5625 10 36.5625H7.5C6.8125 36.5625 6.25 35.9297 6.25 35.1562V29.5312C6.25 28.7578 6.8125 28.125 7.5 28.125ZM38.75 29.5312C38.75 28.7578 39.3125 28.125 40 28.125H42.5C43.1875 28.125 43.75 28.7578 43.75 29.5312V35.1562C43.75 35.9297 43.1875 36.5625 42.5 36.5625H40C39.3125 36.5625 38.75 35.9297 38.75 35.1562V29.5312ZM18.125 15.4688C18.125 13.4175 18.8493 11.4502 20.1386 9.99972C21.428 8.54924 23.1766 7.73438 25 7.73438C26.8234 7.73438 28.572 8.54924 29.8614 9.99972C31.1507 11.4502 31.875 13.4175 31.875 15.4688C31.875 17.52 31.1507 19.4873 29.8614 20.9378C28.572 22.3883 26.8234 23.2031 25 23.2031C23.1766 23.2031 21.428 22.3883 20.1386 20.9378C18.8493 19.4873 18.125 17.52 18.125 15.4688ZM25 11.25C24.3125 11.25 23.75 11.8828 23.75 12.6562V15.4688C23.75 16.2422 24.3125 16.875 25 16.875H27.5C28.1875 16.875 28.75 16.2422 28.75 15.4688C28.75 14.6953 28.1875 14.0625 27.5 14.0625H26.25V12.6562C26.25 11.8828 25.6875 11.25 25 11.25Z" fill="white"/>
</svg>
